<svg xmlns="http://www.w3.org/2000/svg" viewBox="0 0 64 64" fill="none">
  <!-- State nodes -->
  <circle cx="10" cy="32" r="7" fill="rgba(139,92,246,0.15)" stroke="#8b5cf6" stroke-width="2"/>
  <circle cx="32" cy="14" r="7" fill="rgba(139,92,246,0.15)" stroke="#8b5cf6" stroke-width="2"/>
  <circle cx="54" cy="32" r="7" fill="rgba(139,92,246,0.15)" stroke="#8b5cf6" stroke-width="2"/>
  <circle cx="32" cy="50" r="7" fill="rgba(139,92,246,0.15)" stroke="#8b5cf6" stroke-width="2"/>
  <!-- State dots (filled) -->
  <circle cx="10" cy="32" r="3" fill="#8b5cf6"/>
  <circle cx="32" cy="14" r="3" fill="#f0b429"/>
  <circle cx="54" cy="32" r="3" fill="#8b5cf6"/>
  <circle cx="32" cy="50" r="3" fill="#8b5cf6"/>
  <!-- Arrows between states -->
  <line x1="17" y1="28" x2="25" y2="19" stroke="#8b5cf6" stroke-width="1.8" stroke-linecap="round"/>
  <polygon points="25,19 21,23 27,25" fill="#8b5cf6"/>
  <line x1="39" y1="19" x2="47" y2="28" stroke="#8b5cf6" stroke-width="1.8" stroke-linecap="round"/>
  <polygon points="47,28 43,24 49,22" fill="#8b5cf6"/>
  <line x1="47" y1="36" x2="39" y2="45" stroke="#8b5cf6" stroke-width="1.8" stroke-linecap="round"/>
  <polygon points="39,45 43,41 37,43" fill="#8b5cf6"/>
  <line x1="25" y1="45" x2="17" y2="36" stroke="#8b5cf6" stroke-width="1.8" stroke-linecap="round"/>
  <polygon points="17,36 21,40 15,38" fill="#8b5cf6"/>
  <!-- Center trigger highlight -->
  <circle cx="32" cy="32" r="5" fill="rgba(240,180,41,0.2)" stroke="#f0b429" stroke-width="1.5" stroke-dasharray="3,2"/>
  <!-- Lightning bolt (trigger) -->
  <path d="M34 27 L30 32 L33 32 L29 37 L35 31 L31 31 Z" fill="#f0b429"/>
</svg>
