<svg xmlns="http://www.w3.org/2000/svg" viewBox="0 0 64 64" fill="none">
  <rect x="4" y="4" width="56" height="56" rx="10" fill="#3178C6"/>
  <path d="M36 29.5H30V27h16v2.5h-6V45h-4V29.5z" fill="white"/>
  <path d="M20 38.5c.7 1.2 1.8 1.9 3.2 1.9 1.3 0 2.1-.6 2.1-1.5 0-.9-.6-1.4-2.2-2L22 36.5C19.6 35.6 18 34.2 18 31.7c0-2.7 2.2-4.7 5.3-4.7 2.4 0 4 .9 5.1 2.7L26 31.4c-.6-1-1.3-1.5-2.4-1.5-1 0-1.7.6-1.7 1.4 0 .9.5 1.3 2.1 1.9l1.2.5c2.8 1.1 4.2 2.5 4.2 5.1 0 2.9-2.3 5-5.7 5-2.6 0-4.6-1.1-5.7-3.1L20 38.5z" fill="white"/>
</svg>
